<?xml version="1.0" encoding="utf-8"?>
<!-- Generator: Adobe Illustrator 22.0.0, SVG Export Plug-In . SVG Version: 6.00 Build 0)  -->
<svg version="1.1" id="Layer_1" xmlns="http://www.w3.org/2000/svg" xmlns:xlink="http://www.w3.org/1999/xlink" x="0px" y="0px" viewBox="0 0 874 238" style="enable-background:new 0 0 874 238;" xml:space="preserve">
    <style type="text/css">
	.st0-ftrprf{fill:#22D86B;}
	.st1-ftrprf{fill:#ED2A24;}
    </style>
    <g>
        <g>
            <path d="M152.6,194c6.3,0,10.3,0.6,10.3,9.5c0,3.9-2.2,5.8-6.9,5.8h-11.7c0,7.7,1.9,9.2,6,9.2c4.7,0,8.4-0.1,12.2-0.7v2.2
			c-4.1,1.2-8,1.4-12.2,1.4c-6.9,0-8.9-3.5-8.9-13.9C141.4,195.6,144.6,194,152.6,194z M156,206.5c2.4,0,4-0.6,4-2.9
			c0-6.1-1.7-6.6-7.4-6.6c-6.2,0-8.4,0.6-8.4,9.6L156,206.5L156,206.5z" />
            <path d="M166.3,205h15.4v2.9h-15.4L166.3,205L166.3,205z" />
            <path d="M199.1,184h3.1l13.1,37.2h-3.4l-3.7-11.2h-15.5l-3.8,11.2h-3.5L199.1,184z M207.2,207.1l-6.6-18.9l-6.8,18.9H207.2z" />
            <path d="M227.3,194c2.6,0,7.6,0.6,11.1,1.3v2.1c0,0-6.5-0.5-11.1-0.5c-3.6,0-6,1-6,11c0,8.7,2.1,10.7,6,10.7
			c4.7,0,11.4-0.7,11.4-0.7v2.2c-4.1,1.2-7.2,1.4-11.4,1.5c-5,0-8.9-1.9-8.9-13.8C218.5,195.9,222.2,194,227.3,194z" />
            <path d="M243.3,211.7c0-4.1,2.6-6.8,6.8-6.8c0,0,11.6,0.1,11.6,0c0,0,0.1-3.3,0-3.4c0-3.2-1.6-5-5-5c-3.7,0-7.7,0.3-12.5,0.8v-2.1
			c3.4-0.9,7.6-1.5,12.6-1.5c4.2-0.1,7.8,2.2,7.8,7.8v19.6h-2.1l-0.8-3.2c-0.1,0-6.9,3.6-11.6,3.6c-3.7,0-6.8-2.4-6.8-6.7V211.7z
			 M250,218.6c4.1,0,11.6-2.7,11.6-2.7v-8.7l-11.6,0.7c-2.8,0.2-3.9,1.9-3.9,4.1v2.6C246.2,217.6,248,218.6,250,218.6z" />
            <path d="M279.2,193.8c2.3,0,6.7,0.7,10,2v-14.5h2.8v39.8h-2l-0.8-3c-1.3,1.1-6.5,3.3-9.9,3.3c-7.4,0-9-7.5-9-13.7
			C270.2,200.9,271.6,193.8,279.2,193.8z M279.2,218.6c4,0,7.2-1.3,9.9-2.5v-18c-3.5-0.9-6-1.4-9.9-1.4c-3.6,0-6.1,2-6.1,11.1
			C273.1,215.3,275.6,218.6,279.2,218.6z" />
            <path d="M309.5,194c6.3,0,10.3,0.6,10.3,9.5c0,3.9-2.2,5.8-6.9,5.8h-11.7c0,7.7,1.9,9.2,6,9.2c4.7,0,8.4-0.1,12.2-0.7v2.2
			c-4.1,1.2-8,1.4-12.2,1.4c-6.9,0-8.9-3.5-8.9-13.9C298.3,195.6,301.5,194,309.5,194z M312.9,206.5c2.4,0,4-0.6,4-2.9
			c0-6.1-1.7-6.6-7.4-6.6c-6.2,0-8.4,0.6-8.4,9.6L312.9,206.5L312.9,206.5z" />
            <path d="M325.5,194.2h2l0.9,3.2c3-1.8,6-3.6,10.1-3.6c3.4,0,6.2,1.6,7.4,4c2.6-2.1,6.9-4,11.2-4c4.9,0,8.3,3.7,8.3,8.7v18.6h-2.9
			v-18.6c0-3.3-2.2-5.8-5.4-5.8c-4.1,0-7.1,1-10.6,3.1c0.2,0.4,0.3,2.2,0.3,2.6v18.7h-2.9v-18.6c0-3.3-2.2-5.8-5.5-5.8
			c-4.1,0-6.2,1-10.1,2.9v21.5h-2.9v-26.9H325.5z" />
            <path d="M371.8,194.2l6.9,21.1c1.2,3.7,4,2.9,4,2.9l8-23.9h3.2L382,229.7l-3.3,5.2H377l4.7-13.7c-1.1,0-4.4-0.2-6-5.6l-6.9-21.4
			H371.8z" />
            <path d="M409.4,195l4.8-0.7v-5c0-2.7,0.2-7.9,5.7-7.9c2.2,0,5,0.3,7.3,1v1.9h-6.6c-3.3,0-3.5,2.1-3.5,5.1v5h8v2.9h-8v24.1h-2.9
			v-24.1h-4.8V195z" />
            <path d="M441.2,194c9,0,11.6,3.8,11.6,14.1c0,9.9-2.7,13.3-11.6,13.3c-9,0-11.6-3.7-11.6-13.3C429.6,197.1,432.7,194,441.2,194z
			 M441.2,218.5c5.8,0,8.7-1.1,8.7-10.5c0-10.1-2.7-11.2-8.7-11.2c-5.8,0-8.7,0.8-8.7,11.2C432.5,217.7,435.6,218.5,441.2,218.5z" />
            <path d="M459.1,194.2h1.9l0.9,3.4c3.1-1.8,6.1-3.7,10.4-3.7c1.5,0,3,0.1,3.8,0.4v2.8c-0.8-0.2-2.3-0.3-3.8-0.3
			c-4.2,0-6.5,1.3-10.4,3.1v21.2H459L459.1,194.2L459.1,194.2z" />
            <path d="M494.7,194.2l9.1,22.7l9.3-22.7h3.1l-11,27h-2.9l-10.8-27H494.7z" />
            <path d="M520.2,186.9c0-0.6,0.3-1,1-1h1.9c0.6,0,1,0.5,1,1v2.9c0,0.6-0.4,1-1,1h-1.9c-0.6,0-1-0.4-1-1V186.9z M520.6,194.2h2.9v27
			h-2.9V194.2z" />
            <path d="M529.1,200.6c0-4.2,1.8-6.6,7-6.6c2.6,0,10.1,0.4,12.7,0.7v2.2h-12.7c-3.6,0-4.1,1.4-4.1,3.8v2.3c0,3.3,1.6,3.4,4.1,3.4
			h7.5c4.2,0,6.6,2.5,6.6,6.3v2.5c0,5.5-3.3,6.3-6.6,6.3c-2.5,0-11.5-0.6-13.4-0.8v-2.1h13.4c0.8,0,3.7,0.2,3.7-3.4v-2.5
			c0-2-1-3.4-3.7-3.4h-7.5c-4.8,0-7-1.1-7-6.3V200.6z" />
            <path d="M555.3,186.9c0-0.6,0.3-1,1-1h1.9c0.6,0,1,0.5,1,1v2.9c0,0.6-0.4,1-1,1h-1.9c-0.6,0-1-0.4-1-1V186.9z M555.7,194.2h2.9v27
			h-2.9V194.2z" />
            <path d="M576.4,194c9,0,11.6,3.8,11.6,14.1c0,9.9-2.7,13.3-11.6,13.3c-9,0-11.6-3.7-11.6-13.3C564.8,197.1,567.8,194,576.4,194z
			 M576.4,218.5c5.8,0,8.7-1.1,8.7-10.5c0-10.1-2.7-11.2-8.7-11.2c-5.8,0-8.7,0.8-8.7,11.2C567.7,217.7,570.7,218.5,576.4,218.5z" />
            <path d="M594.2,194.2h2l0.9,3.1c3-1.8,6.2-3.6,10.3-3.6c5.4,0,8.3,4.2,8.3,8.6v18.8h-2.9v-18.8c0-3.6-2.2-5.7-5.4-5.7
			c-4.2,0-6.4,1-10.3,3v21.6h-2.9L594.2,194.2L594.2,194.2z" />
            <path d="M620.8,211.7c0-4.1,2.6-6.8,6.8-6.8c0,0,11.6,0.1,11.6,0c0,0,0.1-3.3,0-3.4c0-3.2-1.6-5-5-5c-3.7,0-7.7,0.3-12.5,0.8v-2.1
			c3.4-0.9,7.6-1.5,12.6-1.5c4.2-0.1,7.8,2.2,7.8,7.8v19.6H640l-0.8-3.2c-0.1,0-6.9,3.6-11.6,3.6c-3.7,0-6.8-2.4-6.8-6.7
			L620.8,211.7L620.8,211.7z M627.6,218.6c4.1,0,11.6-2.7,11.6-2.7v-8.7l-11.6,0.7c-2.8,0.2-3.9,1.9-3.9,4.1v2.6
			C623.7,217.6,625.6,218.6,627.6,218.6z" />
            <path d="M648.3,194.2h1.9l0.9,3.4c3.1-1.8,6.1-3.7,10.4-3.7c1.5,0,3,0.1,3.8,0.4v2.8c-0.8-0.2-2.3-0.3-3.8-0.3
			c-4.2,0-6.5,1.3-10.4,3.1v21.2h-2.9L648.3,194.2L648.3,194.2z" />
            <path d="M669.3,186.9c0-0.6,0.3-1,1-1h1.9c0.6,0,1,0.5,1,1v2.9c0,0.6-0.4,1-1,1h-1.9c-0.6,0-1-0.4-1-1V186.9z M669.7,194.2h2.9v27
			h-2.9V194.2z" />
            <path d="M690,194c6.3,0,10.3,0.6,10.3,9.5c0,3.9-2.2,5.8-6.9,5.8h-11.7c0,7.7,1.9,9.2,6,9.2c4.7,0,8.4-0.1,12.2-0.7v2.2
			c-4.1,1.2-8,1.4-12.2,1.4c-6.9,0-8.9-3.5-8.9-13.9C678.8,195.6,682,194,690,194z M693.4,206.5c2.4,0,4-0.6,4-2.9
			c0-6.1-1.7-6.6-7.4-6.6c-6.2,0-8.4,0.6-8.4,9.6L693.4,206.5L693.4,206.5z" />
            <path d="M704.9,200.6c0-4.2,1.8-6.6,7-6.6c2.6,0,10.1,0.4,12.7,0.7v2.2h-12.7c-3.6,0-4.1,1.4-4.1,3.8v2.3c0,3.3,1.6,3.4,4.1,3.4
			h7.5c4.2,0,6.6,2.5,6.6,6.3v2.5c0,5.5-3.3,6.3-6.6,6.3c-2.5,0-11.5-0.6-13.4-0.8v-2.1h13.4c0.8,0,3.7,0.2,3.7-3.4v-2.5
			c0-2-1-3.4-3.7-3.4h-7.5c-4.8,0-7-1.1-7-6.3V200.6z" />
        </g>
    </g>
    <path d="M212.7,110.2c-23.6-0.1-47.6-0.1-70.8-0.1c-8.9,0-17.8,0-26.7,0l0,0c-7.2,0-8.8,3.7-8.8,6.8c0,2,0.6,3.6,1.8,4.8
	c1.8,1.8,4.5,2.1,6.9,2.1h0.1c11.9,0,23.8,0,35.7,0h26c12.1,0,24.2,0,36.4,0c3.6,0,6.6-1.5,7.8-4c1-1.9,0.8-4.1-0.6-6
	C218.5,111.5,215.1,110.2,212.7,110.2z" />
    <path d="M73.4,84.8c1.2-1.2,1.8-2.9,1.7-5c-0.2-4.3-2.9-6.4-8.1-6.4l0,0c-16.9,0-33.7,0-50.6,0l0,0c-1.7,0-3.5,0.1-5.1,0.9
	c-1.5,0.8-3.2,2.4-3.2,5.8c0,4.5,2.8,6.8,8.3,6.8c3.4,0,6.9,0,10.3,0c3,0,6.1,0,9.1,0h5.8H50c5.6,0,11.2,0,16.9,0
	C69,86.9,71.6,86.7,73.4,84.8z" />
    <path d="M101.5,148.8c0,0-18.3-0.1-27.4,0c-2.6,0-4.6,0.2-5.9,1.7c-0.8,0.9-1.8,2.5-1.7,5.1c0.1,1.9,1,6.4,7.6,6.4h0.1
	c3.1,0,6.3,0,9.4,0h4h4c3.1,0,6.3,0,9.4,0c0.1,0,0.1,0,0.2,0c2.6,0,4.5-0.7,5.9-2c1.2-1.2,1.8-2.8,1.8-4.8
	C108.9,151,106.1,148.9,101.5,148.8z" />
    <path class="st0-ftrprf" d="M133.2,48.6c-0.8,0.9-1.8,2.5-1.7,5.1c0.1,1.9,1,6.4,7.6,6.4h0.1c3.2,0,6.3,0,9.5,0h4h4c3.1,0,6.3,0,9.4,0
	c0.1,0,0.1,0,0.2,0c2.6,0,4.5-0.7,5.9-2c1.2-1.2,1.8-2.8,1.8-4.8c0-4.2-2.9-6.8-7.5-6.8l0,0c-9-0.1-18.2-0.1-27.4,0
	C136.6,46.5,134.6,47.2,133.2,48.6z" />
    <path class="st1-ftrprf" d="M107.5,21.4h0.1c3.2,0,6.3,0,9.5,0h4h4c3.1,0,6.3,0,9.4,0c0.1,0,0.1,0,0.2,0c2.6,0,4.5-0.6,5.9-1.8
	c1.2-1.1,1.8-2.5,1.8-4.3c0-3.7-2.9-6-7.5-6.1c-9,0-18.2-0.1-27.4,0c-2.6,0-4.5,0.7-5.9,1.9c-0.8,0.8-1.8,2.2-1.7,4.5
	C100,17.4,100.9,21.4,107.5,21.4z" />
    <path d="M312,9.3L312,9.3c0,0-127.3-0.1-137.3-0.1c-2,0-8.2-0.5-8.3,5.5c0,1.7-0.1,3,0.9,4c1.7,1.7,4.6,2.7,7,2.7
	c13.3-0.1,73.1,0,73.1,0v48.5c-0.1,0-0.9,0-3.1,0h-3.8c-2.4,0-4.6,1.5-5.8,2.7c-1,1.1-1.1,3.4-1,5.2c0.1,2.5,1.4,5.2,6.8,5.2h0.2
	c2.3,0,4.5,0,6.8,0v65.8c-6.9,0-11.1,0-12,0c-2.1,0-3.9,1.3-5,2.5c-1,1.1-1.5,2.6-1.5,4.4c0.1,2.1,1,6.3,6.7,6.3c0,0,10.8,0,20,0
	c2.5,0,6.8-3.4,7.1-9.7V84.9V83H304c4.1-0.7,4.7-4.1,4.7-6.4c0-3.7-2.4-6.7-6.6-6.7c-4,0-39.3,0-39.3,0V21.4H312
	c2.1,0,3.8-1.7,3.8-3.8v-4.4C315.9,11,314.1,9.3,312,9.3z M303,83.3L303,83.3L303,83.3L303,83.3L303,83.3z" />
    <path d="M409,15.7v-0.6c0-3.2-2.6-5.8-5.8-5.8L325,9.2c-3.2,0-5.8,2.6-5.8,5.8v0.6c0,3.2,2.6,5.8,5.8,5.8h35.6l0.1,134.1
	c0,3.7,3,6.6,6.6,6.6h2.1c3.6,0,6.4-2.9,6.4-6.4l0.1-134.3l27.2,0.1C406.4,21.5,409,18.9,409,15.7z" />
    <path d="M857.3,82l-65.1-70.3c-0.1-0.1-0.2-0.1-0.3-0.2c-0.8-1.1-2-1.8-3.3-2.1h0.9l0,0c-0.4-0.1-0.8-0.1-1.2-0.1
	c-0.3,0-0.6,0-0.9,0l0,0h-0.1c-35.7-0.2-68.8-0.1-104.8-0.1c-3.4,0-6.8,0.6-6.9,4.6c0,4.1,3.3,4.6,6.8,4.6c3.9,0,7.7,0,11.6,0v130.4
	c-4.5,0-10.5,0-15,0l-39.8-57.4c5-0.4,9.8-1.3,14.3-2.9c17.2-5.8,27.1-20,27.1-39c0-10.4-2.1-26.2-16.7-34.4
	c-10.4-5.8-21.9-6.6-33.3-5.8h-9.9c-0.2,0-0.4,0-0.6,0c-0.5,0-29.1,0-58.3,0c-2.6-0.2-5.4-0.2-8.2,0c-23.9,0-46.5,0-52.7,0
	c0,0.1,0,0.1,0,0.2c-1.2,0-2.2-0.1-2.9-0.1l0,0c-1.1,0-2.2,0-3.1,0.5c-1.1,0.6-1.6,1.6-1.6,3.1v1.6c0,1.4,0.5,2.7,1.5,3.7
	s2.3,1.5,3.7,1.5h22.3l0.1,58.3c-6.8,0-7,0-7.1,0s-1.5,0-9.9,0c-1.8,0-3.9,0-5.6,0.7c-2,0.9-3,2.7-3,5.4c0,1.8,0.5,3.2,1.4,4.1
	c1.5,1.5,3.9,1.5,6.4,1.5h0.6c8.3,0,11.4,0,14.2,0c1,0,1.9,0,3,0l0.1,59.1h-18.5h-14.2l-39.7-57.4c5-0.4,9.8-1.3,14.3-2.9
	c17.2-5.8,27.1-20,27.1-39c0-10.4-1.7-26.9-16.7-34.4c-10.8-5.4-22.2-5.6-33.3-5.8h-12.8c-6.4,0-11.5,5.2-11.5,11.5v128h-15.1
	c-6.1,0-15.1,0-15.2,6.6c-0.1,5.5,6.6,6.5,7.3,6.6l0,0c0,0,0.3,0,0.8,0c0.1,0,0.2,0,0.3,0h73.1h2.4c0.1,0,0.2,0,0.3,0
	c0.4,0,0.6,0,0.6,0h10.9c13.4,0,26.8,0,40.3,0c5.5,0,10.9-0.4,13.3-3c1-1.1,1.8-5.8,1.8-6.7V91.3h16.7c28.2,0,46.4-16.6,46.4-42.3
	c0-12.8-4.7-23.4-13-30.4h20.1V149c-15.6,0-31.5,0-47.1,0c-6.5,0-10.7,2.1-10.7,6.3s4.5,6.8,10.9,6.8c15.6,0,31.3,0,46.9,0l0,0h0.2
	c0.8,0.1,1.6,0.1,2.5,0.1c17.9-0.1,35.9,0,53.8,0c5.7,0,11.4,0,17.1,0l0,0c0.2,0,0.3,0,0.5,0c5.7,0,11.4,0,17.1,0l0,0
	c1.1,0,2.3,0,3.4,0l0,0h0.8c4.2,0,7.7-3.4,7.7-7.7V85.1V83c1.9,0.1,34.4,0,35.6,0c8.8,0,10.1-2.9,10.2-6.4c0.2-4.9-2.9-6.4-9.8-6.8
	c-3.5-0.2-34.1,0-36,0.1V21.3h73.3l58.8,63.4L788,144.6c-2.3,2.6-2.7,6.3-1.1,9.3c2.1,3.9,7.4,4.6,10.3,1.2l60.2-67.9
	C858.7,85.7,858.6,83.5,857.3,82z M430.7,21.4h9.7c6.6,0,16.3,1.1,21.7,4.2c3.6,1.9,11.9,8.1,11.9,23.7c0,17.7-11.5,27.9-31.5,27.9
	h-11.7V21.4H430.7z M430.8,148.8c0.2-13-0.1-57.2-0.1-57.2h0.4l39.1,57.2H430.8z M553.2,76.7H536V21.3h15.5
	c19.9,0,31.7,10.4,31.7,27.7C583.3,66.1,571.8,76.7,553.2,76.7z M621.5,21.4h9.7c6.6,0,16.3,1.1,21.7,4.2
	c3.6,1.9,11.9,8.1,11.9,23.7c0,17.7-11.5,27.9-31.5,27.9h-11.7V21.4H621.5z M621.5,148.8V91.6h0.4l39.3,57.2
	C647.5,148.8,635.2,148.9,621.5,148.8z" />
</svg>
